<svg width="105" height="47" viewBox="0 0 105 47" fill="none" xmlns="http://www.w3.org/2000/svg">
<path d="M22.3367 36.369H13.5889L1.4248 2.63617H10.1467L17.9628 26.6325L25.7788 2.63617H34.5007L22.3367 36.369Z" fill="#DA78FF"/>
<path d="M42.4397 29.648L48.1853 15.3882H55.8979L41.301 47H33.4331L38.3505 36.369L29.4734 15.3882H37.3153L42.4397 29.648Z" fill="#DA78FF"/>
<path d="M55.5389 36.369V1.20508H63.4067V18.4548C63.562 17.9778 63.9589 17.4582 64.5973 16.896C65.2529 16.3167 66.107 15.8226 67.1595 15.4138C68.2292 14.9878 69.437 14.7749 70.7828 14.7749C72.8533 14.7749 74.6477 15.2775 76.1661 16.2826C77.6844 17.2878 78.8577 18.6337 79.6859 20.3203C80.5141 21.99 80.9282 23.847 80.9282 25.8914C80.9282 27.9358 80.5141 29.8013 79.6859 31.488C78.8577 33.1576 77.6844 34.4949 76.1661 35.5001C74.6477 36.4883 72.8533 36.9823 70.7828 36.9823C69.6441 36.9823 68.5657 36.7779 67.5477 36.369C66.547 35.9771 65.6756 35.4746 64.9337 34.8612C64.209 34.2309 63.6742 33.6005 63.3291 32.9702V36.369H55.5389ZM73.2156 25.8914C73.2156 24.9373 73 24.0855 72.5686 23.3359C72.1545 22.5692 71.5765 21.9729 70.8346 21.547C70.1099 21.104 69.2903 20.8826 68.3759 20.8826C67.4269 20.8826 66.5728 21.104 65.8137 21.547C65.0717 21.9729 64.4851 22.5692 64.0538 23.3359C63.6224 24.0855 63.4067 24.9373 63.4067 25.8914C63.4067 26.8454 63.6224 27.7058 64.0538 28.4724C64.4851 29.2221 65.0717 29.8098 65.8137 30.2358C66.5728 30.6617 67.4269 30.8746 68.3759 30.8746C69.2903 30.8746 70.1099 30.6617 70.8346 30.2358C71.5765 29.8098 72.1545 29.2221 72.5686 28.4724C73 27.7058 73.2156 26.8454 73.2156 25.8914Z" fill="#DA78FF"/>
<path d="M89.2279 27.5269C89.2797 28.2765 89.5212 28.941 89.9526 29.5202C90.3839 30.0995 90.9792 30.5595 91.7383 30.9002C92.5148 31.2239 93.4292 31.3857 94.4817 31.3857C95.4825 31.3857 96.3797 31.2835 97.1734 31.0791C97.9843 30.8746 98.6831 30.6191 99.2697 30.3124C99.8736 30.0058 100.339 29.6906 100.667 29.3669L103.721 34.1712C103.29 34.6312 102.677 35.0827 101.884 35.5257C101.107 35.9516 100.081 36.3008 98.8039 36.5734C97.5271 36.846 95.9138 36.9823 93.9641 36.9823C91.6176 36.9823 89.5298 36.5479 87.7009 35.679C85.872 34.8101 84.4313 33.5324 83.3788 31.8457C82.3263 30.1591 81.8 28.0976 81.8 25.6614C81.8 23.617 82.2486 21.777 83.1459 20.1415C84.0603 18.4889 85.3802 17.1856 87.1056 16.2315C88.831 15.2604 90.9102 14.7749 93.343 14.7749C95.655 14.7749 97.6565 15.1923 99.3474 16.0271C101.056 16.8619 102.367 18.1056 103.281 19.7581C104.213 21.3937 104.679 23.4381 104.679 25.8914C104.679 26.0277 104.67 26.3003 104.653 26.7091C104.653 27.118 104.636 27.3906 104.601 27.5269H89.2279ZM97.2769 23.4636C97.2596 22.9185 97.113 22.3818 96.8369 21.8537C96.5608 21.3085 96.1467 20.8655 95.5946 20.5248C95.0425 20.167 94.3351 19.9881 93.4724 19.9881C92.6097 19.9881 91.8764 20.1585 91.2725 20.4992C90.6859 20.8229 90.2373 21.2488 89.9267 21.777C89.6161 22.3051 89.4436 22.8673 89.4091 23.4636H97.2769Z" fill="#DA78FF"/>
<path d="M21.1316 35.1639H12.3838L0.219727 1.43109H8.94163L16.7577 25.4274L24.5738 1.43109H33.2957L21.1316 35.1639Z" fill="#6B21A8"/>
<path d="M41.2347 28.4429L46.9802 14.1831H54.6928L40.0959 45.7949H32.2281L37.1455 35.1639L28.2683 14.1831H36.1102L41.2347 28.4429Z" fill="#6B21A8"/>
<path d="M54.3338 35.1639V0H62.2017V17.2497C62.3569 16.7727 62.7538 16.2531 63.3922 15.6909C64.0478 15.1116 64.9019 14.6176 65.9544 14.2087C67.0241 13.7828 68.2319 13.5698 69.5777 13.5698C71.6482 13.5698 73.4426 14.0724 74.961 15.0776C76.4793 16.0827 77.6526 17.4286 78.4808 19.1153C79.309 20.7849 79.7231 22.6419 79.7231 24.6863C79.7231 26.7307 79.309 28.5962 78.4808 30.2829C77.6526 31.9525 76.4793 33.2899 74.961 34.295C73.4426 35.2832 71.6482 35.7772 69.5777 35.7772C68.439 35.7772 67.3606 35.5728 66.3426 35.1639C65.3419 34.7721 64.4706 34.2695 63.7286 33.6562C63.004 33.0258 62.4691 32.3954 62.124 31.7651V35.1639H54.3338ZM72.0106 24.6863C72.0106 23.7322 71.7949 22.8804 71.3635 22.1308C70.9494 21.3641 70.3714 20.7678 69.6295 20.3419C68.9048 19.899 68.0853 19.6775 67.1708 19.6775C66.2218 19.6775 65.3678 19.899 64.6086 20.3419C63.8667 20.7678 63.28 21.3641 62.8487 22.1308C62.4173 22.8804 62.2017 23.7322 62.2017 24.6863C62.2017 25.6404 62.4173 26.5007 62.8487 27.2674C63.28 28.017 63.8667 28.6048 64.6086 29.0307C65.3678 29.4566 66.2218 29.6696 67.1708 29.6696C68.0853 29.6696 68.9048 29.4566 69.6295 29.0307C70.3714 28.6048 70.9494 28.017 71.3635 27.2674C71.7949 26.5007 72.0106 25.6404 72.0106 24.6863Z" fill="#6B21A8"/>
<path d="M88.0228 26.3218C88.0746 27.0714 88.3161 27.7359 88.7475 28.3151C89.1788 28.8944 89.7741 29.3544 90.5333 29.6951C91.3097 30.0188 92.2242 30.1807 93.2767 30.1807C94.2774 30.1807 95.1746 30.0784 95.9683 29.874C96.7792 29.6696 97.478 29.414 98.0647 29.1073C98.6685 28.8007 99.1344 28.4855 99.4622 28.1618L102.516 32.9662C102.085 33.4262 101.472 33.8776 100.679 34.3206C99.9022 34.7465 98.8756 35.0958 97.5988 35.3684C96.322 35.6409 94.7087 35.7772 92.759 35.7772C90.4125 35.7772 88.3248 35.3428 86.4958 34.4739C84.6669 33.605 83.2262 32.3273 82.1737 30.6407C81.1212 28.954 80.595 26.8926 80.595 24.4563C80.595 22.4119 81.0436 20.5719 81.9408 18.9364C82.8552 17.2838 84.1752 15.9805 85.9006 15.0264C87.626 14.0553 89.7051 13.5698 92.1379 13.5698C94.4499 13.5698 96.4514 13.9872 98.1423 14.822C99.8504 15.6568 101.162 16.9005 102.076 18.5531C103.008 20.1886 103.474 22.233 103.474 24.6863C103.474 24.8226 103.465 25.0952 103.448 25.5041C103.448 25.9129 103.431 26.1855 103.396 26.3218H88.0228ZM96.0718 22.2586C96.0546 21.7134 95.9079 21.1767 95.6318 20.6486C95.3558 20.1034 94.9417 19.6604 94.3895 19.3197C93.8374 18.9619 93.13 18.7831 92.2673 18.7831C91.4046 18.7831 90.6713 18.9534 90.0674 19.2942C89.4808 19.6179 89.0322 20.0438 88.7216 20.5719C88.411 21.1001 88.2385 21.6623 88.204 22.2586H96.0718Z" fill="#6B21A8"/>
</svg>
