<svg width="110" height="44" viewBox="0 0 110 44" fill="none" xmlns="http://www.w3.org/2000/svg">
<path d="M19.883 33.7857H11.5656L0 1.375H8.29277L15.7243 24.4308L23.1558 1.375H31.4485L19.883 33.7857Z" fill="white"/>
<path d="M38.9969 27.3281L44.4598 13.6272H51.7929L37.9142 44H30.4335L35.1089 33.7857L26.6685 13.6272H34.1246L38.9969 27.3281Z" fill="white"/>
<path d="M51.4516 33.7857V0H58.9323V16.5737C59.0799 16.1153 59.4572 15.6161 60.0642 15.0759C60.6876 14.5193 61.4997 14.0446 62.5004 13.6518C63.5175 13.2426 64.6659 13.0379 65.9455 13.0379C67.9141 13.0379 69.6202 13.5208 71.0638 14.4866C72.5075 15.4524 73.623 16.7455 74.4105 18.3661C75.1979 19.9702 75.5916 21.7545 75.5916 23.7187C75.5916 25.683 75.1979 27.4754 74.4105 29.096C73.623 30.7001 72.5075 31.9851 71.0638 32.9509C69.6202 33.9003 67.9141 34.375 65.9455 34.375C64.8627 34.375 63.8374 34.1786 62.8695 33.7857C61.918 33.4092 61.0896 32.9263 60.3841 32.3371C59.6951 31.7314 59.1866 31.1257 58.8585 30.5201V33.7857H51.4516ZM68.2586 23.7187C68.2586 22.8021 68.0535 21.9836 67.6434 21.2634C67.2497 20.5268 66.7001 19.9539 65.9947 19.5446C65.3057 19.119 64.5264 18.9063 63.6569 18.9063C62.7547 18.9063 61.9426 19.119 61.2208 19.5446C60.5154 19.9539 59.9576 20.5268 59.5475 21.2634C59.1373 21.9836 58.9323 22.8021 58.9323 23.7187C58.9323 24.6354 59.1373 25.4621 59.5475 26.1987C59.9576 26.9189 60.5154 27.4836 61.2208 27.8929C61.9426 28.3021 62.7547 28.5067 63.6569 28.5067C64.5264 28.5067 65.3057 28.3021 65.9947 27.8929C66.7001 27.4836 67.2497 26.9189 67.6434 26.1987C68.0535 25.4621 68.2586 24.6354 68.2586 23.7187Z" fill="white"/>
<path d="M83.483 25.2902C83.5322 26.0104 83.7619 26.6488 84.172 27.2054C84.5821 27.7619 85.1481 28.2039 85.8699 28.5312C86.6082 28.8423 87.4776 28.9978 88.4783 28.9978C89.4298 28.9978 90.2829 28.8996 91.0375 28.7031C91.8086 28.5067 92.473 28.2612 93.0307 27.9665C93.6049 27.6719 94.0479 27.369 94.3596 27.058L97.2633 31.6741C96.8531 32.1161 96.2707 32.5499 95.5161 32.9754C94.7779 33.3847 93.8018 33.7202 92.5878 33.9821C91.3738 34.244 89.84 34.375 87.9862 34.375C85.7551 34.375 83.7701 33.9576 82.0311 33.1228C80.2922 32.2879 78.9224 31.0603 77.9217 29.4397C76.921 27.8192 76.4206 25.8385 76.4206 23.4978C76.4206 21.5335 76.8471 19.7656 77.7002 18.1942C78.5697 16.6064 79.8247 15.3542 81.4652 14.4375C83.1057 13.5045 85.0825 13.0379 87.3956 13.0379C89.5939 13.0379 91.4969 13.439 93.1046 14.2411C94.7287 15.0432 95.9755 16.2381 96.8449 17.8259C97.7308 19.3973 98.1737 21.3616 98.1737 23.7187C98.1737 23.8497 98.1655 24.1116 98.1491 24.5045C98.1491 24.8973 98.1327 25.1592 98.0999 25.2902H83.483ZM91.136 21.3862C91.1196 20.8624 90.9801 20.3467 90.7176 19.8393C90.4551 19.3155 90.0614 18.8899 89.5365 18.5625C89.0115 18.2188 88.3389 18.0469 87.5186 18.0469C86.6984 18.0469 86.0012 18.2106 85.427 18.5379C84.8692 18.849 84.4427 19.2582 84.1474 19.7656C83.8521 20.2731 83.6881 20.8132 83.6552 21.3862H91.136Z" fill="white"/>
<path d="M105.521 34.375C104.307 34.375 103.258 33.9412 102.372 33.0737C101.502 32.1897 101.067 31.1421 101.067 29.9308C101.067 28.6868 101.502 27.631 102.372 26.7634C103.258 25.8795 104.307 25.4375 105.521 25.4375C106.768 25.4375 107.826 25.8795 108.696 26.7634C109.565 27.631 110 28.6868 110 29.9308C110 31.1421 109.565 32.1897 108.696 33.0737C107.826 33.9412 106.768 34.375 105.521 34.375Z" fill="white"/>
</svg>
